<mxfile host="app.diagrams.net" modified="2023-06-26T04:07:30.076Z" agent="Mozilla/5.0 (Windows NT 10.0; Win64; x64) AppleWebKit/537.36 (KHTML, like Gecko) Chrome/114.0.0.0 Safari/537.36 Edg/114.0.1823.58" etag="0yQ8fwV-b_BH_WFvpw5N" version="21.5.0" type="github">
  <diagram name="Page-1" id="GTRcsG2Lqi5amLGIxDH3">
    <mxGraphModel dx="1514" dy="861" grid="1" gridSize="10" guides="1" tooltips="1" connect="1" arrows="1" fold="1" page="1" pageScale="1" pageWidth="850" pageHeight="1100" math="0" shadow="0">
      <root>
        <mxCell id="0" />
        <mxCell id="1" parent="0" />
        <mxCell id="aBlND5Yjf0CKmDYdB40j-9" style="edgeStyle=orthogonalEdgeStyle;rounded=0;orthogonalLoop=1;jettySize=auto;html=1;" parent="1" source="aBlND5Yjf0CKmDYdB40j-1" target="aBlND5Yjf0CKmDYdB40j-7" edge="1">
          <mxGeometry relative="1" as="geometry" />
        </mxCell>
        <mxCell id="aBlND5Yjf0CKmDYdB40j-1" value="order.vue" style="whiteSpace=wrap;html=1;aspect=fixed;" parent="1" vertex="1">
          <mxGeometry x="30" y="140" width="80" height="80" as="geometry" />
        </mxCell>
        <mxCell id="aBlND5Yjf0CKmDYdB40j-2" value="success.vue" style="whiteSpace=wrap;html=1;aspect=fixed;" parent="1" vertex="1">
          <mxGeometry x="760" y="140" width="80" height="80" as="geometry" />
        </mxCell>
        <mxCell id="aBlND5Yjf0CKmDYdB40j-3" value="payments/alipay/orderNumber" style="rounded=0;whiteSpace=wrap;html=1;" parent="1" vertex="1">
          <mxGeometry x="170" y="350" width="180" height="60" as="geometry" />
        </mxCell>
        <mxCell id="aBlND5Yjf0CKmDYdB40j-4" value="" style="endArrow=classic;html=1;rounded=0;exitX=1;exitY=1;exitDx=0;exitDy=0;entryX=0;entryY=0;entryDx=0;entryDy=0;" parent="1" source="aBlND5Yjf0CKmDYdB40j-1" target="aBlND5Yjf0CKmDYdB40j-3" edge="1">
          <mxGeometry width="50" height="50" relative="1" as="geometry">
            <mxPoint x="400" y="470" as="sourcePoint" />
            <mxPoint x="450" y="420" as="targetPoint" />
          </mxGeometry>
        </mxCell>
        <mxCell id="aBlND5Yjf0CKmDYdB40j-5" value="" style="endArrow=classic;html=1;rounded=0;entryX=1;entryY=0.5;entryDx=0;entryDy=0;" parent="1" source="aBlND5Yjf0CKmDYdB40j-3" target="aBlND5Yjf0CKmDYdB40j-1" edge="1">
          <mxGeometry width="50" height="50" relative="1" as="geometry">
            <mxPoint x="400" y="470" as="sourcePoint" />
            <mxPoint x="450" y="420" as="targetPoint" />
          </mxGeometry>
        </mxCell>
        <mxCell id="B8dJiF3So88sfOAiUYJb-6" style="edgeStyle=orthogonalEdgeStyle;rounded=0;orthogonalLoop=1;jettySize=auto;html=1;entryX=0;entryY=0.5;entryDx=0;entryDy=0;" edge="1" parent="1" source="aBlND5Yjf0CKmDYdB40j-7" target="B8dJiF3So88sfOAiUYJb-5">
          <mxGeometry relative="1" as="geometry" />
        </mxCell>
        <mxCell id="aBlND5Yjf0CKmDYdB40j-7" value="AliPay SandBox" style="rounded=0;whiteSpace=wrap;html=1;" parent="1" vertex="1">
          <mxGeometry x="240" y="200" width="440" height="60" as="geometry" />
        </mxCell>
        <mxCell id="aBlND5Yjf0CKmDYdB40j-8" value="Link" style="text;html=1;strokeColor=none;fillColor=none;align=center;verticalAlign=middle;whiteSpace=wrap;rounded=0;" parent="1" vertex="1">
          <mxGeometry x="190" y="270" width="60" height="30" as="geometry" />
        </mxCell>
        <mxCell id="aBlND5Yjf0CKmDYdB40j-10" value="page jump" style="text;html=1;strokeColor=none;fillColor=none;align=center;verticalAlign=middle;whiteSpace=wrap;rounded=0;" parent="1" vertex="1">
          <mxGeometry x="170" y="150" width="60" height="30" as="geometry" />
        </mxCell>
        <mxCell id="B8dJiF3So88sfOAiUYJb-7" style="edgeStyle=orthogonalEdgeStyle;rounded=0;orthogonalLoop=1;jettySize=auto;html=1;" edge="1" parent="1" source="B8dJiF3So88sfOAiUYJb-5">
          <mxGeometry relative="1" as="geometry">
            <mxPoint x="800" y="230" as="targetPoint" />
          </mxGeometry>
        </mxCell>
        <mxCell id="B8dJiF3So88sfOAiUYJb-5" value="AliPay().return_url" style="rhombus;whiteSpace=wrap;html=1;" vertex="1" parent="1">
          <mxGeometry x="640" y="290" width="130" height="100" as="geometry" />
        </mxCell>
      </root>
    </mxGraphModel>
  </diagram>
</mxfile>
